<?xml version="1.0" encoding="utf-8"?>
<!-- Generator: Adobe Illustrator 24.0.1, SVG Export Plug-In . SVG Version: 6.00 Build 0)  -->
<svg version="1.1" id="pd_logos" xmlns="http://www.w3.org/2000/svg" xmlns:xlink="http://www.w3.org/1999/xlink" x="0px" y="0px"
	 viewBox="0 0 166.39 65.2" style="enable-background:new 0 0 166.39 65.2;" xml:space="preserve">
<style type="text/css">
	.st0{fill:url(#SVGID_1_);}
	.st1{fill:url(#SVGID_2_);}
	.st2{fill:url(#SVGID_3_);}
</style>
<g>
	<linearGradient id="SVGID_1_" gradientUnits="userSpaceOnUse" x1="84.782" y1="5.7049" x2="55.5431" y2="35.9557">
		<stop  offset="0.0186" style="stop-color:#FFDC00"/>
		<stop  offset="0.1653" style="stop-color:#C8F064"/>
		<stop  offset="0.4721" style="stop-color:#3DCDE6"/>
		<stop  offset="0.7099" style="stop-color:#3595D2"/>
		<stop  offset="0.8885" style="stop-color:#006CE5"/>
	</linearGradient>
	<path class="st0" d="M74.62,18.78L55.61,30.47l3.09,5.68c0.28,0.16,0.69,0.16,1,0.16c0.61,0,1.17-0.46,1.94-1.27l15.6-16.27H74.62z
		"/>
	<linearGradient id="SVGID_2_" gradientUnits="userSpaceOnUse" x1="66.0922" y1="48.2799" x2="38.8873" y2="11.4285">
		<stop  offset="0.0186" style="stop-color:#FFDC00"/>
		<stop  offset="0.2228" style="stop-color:#C8F064"/>
		<stop  offset="0.6044" style="stop-color:#3DCDE6"/>
		<stop  offset="1" style="stop-color:#006CE5"/>
	</linearGradient>
	<path class="st1" d="M43.32,7.87l15.38,28.29L37.23,18.78l3.92-10.91c0.36-0.48,0.65-0.78,1.1-0.78
		C42.81,7.09,43.04,7.44,43.32,7.87z"/>
	<linearGradient id="SVGID_3_" gradientUnits="userSpaceOnUse" x1="35.1623" y1="0.8092" x2="11.589" y2="65.5764">
		<stop  offset="0.0186" style="stop-color:#FFDC00"/>
		<stop  offset="0.2228" style="stop-color:#C8F064"/>
		<stop  offset="0.5274" style="stop-color:#3DCDE6"/>
		<stop  offset="1" style="stop-color:#006CE5"/>
	</linearGradient>
	<polygon class="st2" points="41.16,7.87 7.08,53.86 24.62,53.86 	"/>
	<g>
		<path d="M38.04,44.5c0-0.54,0.3-0.84,0.84-0.84h0.64c0.54,0,0.82,0.3,0.82,0.7v0.46c0,0.22-0.02,0.4-0.02,0.4h0.04
			c0,0,0.9-1.81,3.29-1.81c2.77,0,4.56,2.19,4.56,5.36c0,3.25-2.01,5.36-4.7,5.36c-2.13,0-2.95-1.57-2.95-1.57h-0.04
			c0,0,0.06,0.36,0.06,0.88v3.61c0,0.56-0.28,0.84-0.84,0.84h-0.86c-0.54,0-0.84-0.28-0.84-0.84V44.5z M43.06,51.99
			c1.41,0,2.57-1.14,2.57-3.17c0-1.95-1.04-3.21-2.53-3.21c-1.32,0-2.59,0.96-2.59,3.23C40.51,50.42,41.39,51.99,43.06,51.99z"/>
		<path d="M54.18,43.42c2.25,0,2.99,1.47,2.99,1.47h0.04c0,0-0.04-0.26-0.04-0.58v-3.81c0-0.54,0.28-0.84,0.82-0.84h0.88
			c0.54,0,0.82,0.3,0.82,0.84v12.57c0,0.56-0.28,0.84-0.82,0.84h-0.74c-0.54,0-0.82-0.26-0.82-0.76v-0.4c0-0.2,0.04-0.36,0.04-0.36
			h-0.04c0,0-0.86,1.77-3.21,1.77c-2.77,0-4.56-2.19-4.56-5.36C49.54,45.52,51.47,43.42,54.18,43.42z M54.66,51.99
			c1.32,0,2.57-0.96,2.57-3.23c0-1.59-0.82-3.15-2.55-3.15c-1.39,0-2.57,1.14-2.57,3.17C52.11,50.72,53.15,51.99,54.66,51.99z"/>
		<path d="M70.34,43.56c2.45,0,3.31,2.03,3.31,2.03h0.04c0,0-0.06-0.34-0.06-0.76v-4.54c0-0.32,0.18-0.5,0.5-0.5h0.38
			c0.32,0,0.48,0.18,0.48,0.5v13.11c0,0.32-0.16,0.5-0.48,0.5h-0.34c-0.32,0-0.5-0.16-0.5-0.48v-0.76c0-0.36,0.08-0.62,0.08-0.62
			h-0.04c0,0-0.86,2.11-3.51,2.11c-2.71,0-4.4-2.17-4.4-5.3C65.8,45.64,67.69,43.56,70.34,43.56z M70.4,52.91
			c1.69,0,3.27-1.2,3.27-4.08c0-2.05-1.04-4.04-3.21-4.04c-1.79,0-3.25,1.49-3.25,4.04C67.21,51.33,68.51,52.91,70.4,52.91z"/>
		<path d="M77.97,41.01v-0.72c0-0.32,0.16-0.5,0.48-0.5h0.5c0.32,0,0.48,0.18,0.48,0.5v0.72c0,0.32-0.16,0.48-0.48,0.48h-0.5
			C78.13,41.49,77.97,41.33,77.97,41.01z M78.01,44.3c0-0.32,0.18-0.5,0.5-0.5h0.38c0.32,0,0.48,0.18,0.48,0.5v9.09
			c0,0.32-0.16,0.5-0.48,0.5h-0.38c-0.32,0-0.5-0.18-0.5-0.5V44.3z"/>
		<path d="M83.77,56.36c0.44,0.2,1.22,0.52,2.35,0.52c1.87,0,3.47-0.92,3.47-3.17v-1.04c0-0.38,0.06-0.72,0.06-0.72h-0.04
			c-0.6,1.14-1.63,1.89-3.21,1.89c-2.71,0-4.5-2.13-4.5-5.24c0-2.97,1.65-5.04,4.46-5.04c2.61,0,3.29,1.85,3.29,1.85h0.04
			c0,0-0.04-0.14-0.04-0.34v-0.82c0-0.26,0.16-0.44,0.48-0.44h0.32c0.32,0,0.5,0.18,0.5,0.5v9.35c0,3.21-2.39,4.46-4.8,4.46
			c-1.04,0-2.07-0.22-2.91-0.6c-0.3-0.14-0.38-0.34-0.24-0.64l0.12-0.28C83.27,56.32,83.45,56.24,83.77,56.36z M89.61,48.7
			c0-2.99-1.45-3.91-3.13-3.91c-2.05,0-3.17,1.45-3.17,3.77c0,2.53,1.3,4.06,3.29,4.06C88.21,52.61,89.61,51.63,89.61,48.7z"/>
		<path d="M93.95,41.01v-0.72c0-0.32,0.16-0.5,0.48-0.5h0.5c0.32,0,0.48,0.18,0.48,0.5v0.72c0,0.32-0.16,0.48-0.48,0.48h-0.5
			C94.11,41.49,93.95,41.33,93.95,41.01z M93.99,44.3c0-0.32,0.18-0.5,0.5-0.5h0.38c0.32,0,0.48,0.18,0.48,0.5v9.09
			c0,0.32-0.16,0.5-0.48,0.5h-0.38c-0.32,0-0.5-0.18-0.5-0.5V44.3z"/>
		<path d="M99.11,45.02h-0.84c-0.32,0-0.48-0.16-0.48-0.48v-0.16c0-0.32,0.16-0.5,0.48-0.5h0.86v-2.37c0-0.32,0.18-0.5,0.5-0.5h0.36
			c0.32,0,0.48,0.18,0.48,0.5v2.37h2.05c0.32,0,0.5,0.18,0.5,0.5v0.16c0,0.32-0.18,0.48-0.5,0.48h-2.05v5.06
			c0,2.33,1.43,2.61,2.21,2.65c0.4,0.04,0.54,0.16,0.54,0.5v0.26c0,0.32-0.16,0.48-0.56,0.48c-2.21,0-3.55-1.34-3.55-3.71V45.02z"/>
		<path d="M110.87,47.71h0.58v-0.32c0-1.95-1.06-2.61-2.49-2.61c-1.12,0-1.99,0.42-2.45,0.7c-0.28,0.14-0.5,0.1-0.68-0.16l-0.12-0.2
			c-0.16-0.26-0.12-0.52,0.14-0.68c0.52-0.32,1.65-0.88,3.21-0.88c2.41,0,3.75,1.34,3.75,3.87v5.96c0,0.32-0.16,0.5-0.48,0.5h-0.32
			c-0.32,0-0.5-0.16-0.5-0.5v-0.8c0-0.46,0.06-0.76,0.06-0.76h-0.04c0.02,0-0.9,2.31-3.41,2.31c-1.71,0-3.41-1-3.41-2.95
			C104.71,47.89,108.92,47.71,110.87,47.71z M108.36,52.99c1.95,0,3.09-2.01,3.09-3.77v-0.48h-0.56c-1.59,0-4.78,0.06-4.78,2.33
			C106.11,52.01,106.85,52.99,108.36,52.99z"/>
		<path d="M115.75,40.28c0-0.32,0.16-0.5,0.48-0.5h0.38c0.32,0,0.5,0.18,0.5,0.5v10.98c0,1.26,0.6,1.41,1.04,1.47
			c0.24,0.02,0.42,0.14,0.42,0.44v0.3c0,0.3-0.14,0.5-0.52,0.5c-0.82,0-2.31-0.26-2.31-2.47V40.28z"/>
		<path d="M124.36,40.28c0-0.32,0.16-0.5,0.48-0.5h0.42c0.3,0,0.48,0.18,0.48,0.5v5.92h8.19v-5.92c0-0.32,0.16-0.5,0.48-0.5h0.4
			c0.32,0,0.5,0.18,0.5,0.5v13.11c0,0.32-0.18,0.5-0.5,0.5h-0.4c-0.32,0-0.48-0.18-0.48-0.5v-5.94h-8.19v5.94
			c0,0.32-0.18,0.5-0.48,0.5h-0.42c-0.32,0-0.48-0.18-0.48-0.5V40.28z"/>
		<path d="M138.37,44.3c0-0.32,0.16-0.5,0.48-0.5h0.38c0.32,0,0.5,0.18,0.5,0.5v5.56c0,1.59,0.24,2.99,2.19,2.99
			c2.31,0,3.73-2.03,3.73-4.22V44.3c0-0.32,0.18-0.5,0.5-0.5h0.38c0.32,0,0.48,0.18,0.48,0.5v9.09c0,0.32-0.16,0.5-0.48,0.5h-0.36
			c-0.32,0-0.48-0.18-0.48-0.5v-1.16c0-0.4,0.06-0.72,0.06-0.72h-0.04c-0.38,0.98-1.75,2.63-3.97,2.63c-2.39,0-3.37-1.28-3.37-3.91
			V44.3z"/>
		<path d="M150.12,40.28c0-0.32,0.16-0.5,0.48-0.5h0.38c0.32,0,0.5,0.18,0.5,0.5v4.52c0,0.46-0.08,0.82-0.08,0.82h0.04
			c0,0,0.88-2.07,3.47-2.07c2.71,0,4.4,2.17,4.4,5.28c0,3.21-1.91,5.3-4.56,5.3c-2.45,0-3.37-2.11-3.37-2.11h-0.04
			c0,0,0.08,0.3,0.08,0.74v0.66c0,0.28-0.18,0.46-0.5,0.46h-0.32c-0.32,0-0.48-0.18-0.48-0.5V40.28z M154.63,52.91
			c1.81,0,3.27-1.49,3.27-4.05c0-2.47-1.32-4.06-3.19-4.06c-1.69,0-3.27,1.2-3.27,4.06C151.44,50.92,152.48,52.91,154.63,52.91z"/>
	</g>
</g>
</svg>
